<?xml version="1.0" encoding="UTF-8" standalone="no"?>
<!-- Generator: Adobe Illustrator 17.0.0, SVG Export Plug-In . SVG Version: 6.00 Build 0)  -->

<svg
   xmlns:dc="http://purl.org/dc/elements/1.1/"
   xmlns:cc="http://creativecommons.org/ns#"
   xmlns:rdf="http://www.w3.org/1999/02/22-rdf-syntax-ns#"
   xmlns:svg="http://www.w3.org/2000/svg"
   xmlns="http://www.w3.org/2000/svg"
   xmlns:sodipodi="http://sodipodi.sourceforge.net/DTD/sodipodi-0.dtd"
   xmlns:inkscape="http://www.inkscape.org/namespaces/inkscape"
   version="1.1"
   id="Layer_1"
   x="0px"
   y="0px"
   width="671.788px"
   height="270px"
   viewBox="0 15 671.788 270"
   enable-background="new 0 15 671.788 270"
   xml:space="preserve"
   sodipodi:docname="logo.svg"
   inkscape:version="0.92.4 (33fec40, 2019-01-16)"><metadata
   id="metadata125"><rdf:RDF><cc:Work
       rdf:about=""><dc:format>image/svg+xml</dc:format><dc:type
         rdf:resource="http://purl.org/dc/dcmitype/StillImage" /></cc:Work></rdf:RDF></metadata><defs
   id="defs123"><meshgradient
     inkscape:collect="always"
     id="meshgradient3830"
     gradientUnits="userSpaceOnUse"
     x="12.01"
     y="30.128"><meshrow
       id="meshrow3832"><meshpatch
         id="meshpatch3834"><stop
           path="c 80.1037,0  160.207,0  240.311,0"
           style="stop-color:#ffffff;stop-opacity:1"
           id="stop3836" /><stop
           path="c 0,80.101  0,160.202  0,240.303"
           style="stop-color:#000000;stop-opacity:1"
           id="stop3838" /><stop
           path="c -80.1037,0  -160.207,0  -240.311,0"
           style="stop-color:#ffffff;stop-opacity:1"
           id="stop3840" /><stop
           path="c 0,-80.101  0,-160.202  0,-240.303"
           style="stop-color:#000000;stop-opacity:1"
           id="stop3842" /></meshpatch></meshrow></meshgradient></defs><sodipodi:namedview
   pagecolor="#ffffff"
   bordercolor="#666666"
   borderopacity="1"
   objecttolerance="10"
   gridtolerance="10"
   guidetolerance="10"
   inkscape:pageopacity="0"
   inkscape:pageshadow="2"
   inkscape:window-width="1863"
   inkscape:window-height="1025"
   id="namedview121"
   showgrid="false"
   inkscape:zoom="0.67878554"
   inkscape:cx="335.89401"
   inkscape:cy="76.071226"
   inkscape:window-x="57"
   inkscape:window-y="27"
   inkscape:window-maximized="1"
   inkscape:current-layer="Layer_1" />
<g
   id="g84"
   style="fill-opacity:1;fill:url(#meshgradient3830)">
	<path
   fill="none"
   stroke="#7BC043"
   stroke-width="0.1"
   d="M189.822,255.71c1.47-0.799,2.918-1.63,4.342-2.497   C192.736,254.073,191.289,254.904,189.822,255.71z"
   id="path2"
   style="fill-opacity:1.0" />
	<path
   fill="none"
   stroke="#4E51A2"
   stroke-width="0.1"
   d="M189.819,44.85c1.47,0.804,2.921,1.638,4.352,2.501   C192.743,46.484,191.292,45.65,189.819,44.85z"
   id="path4"
   style="fill-opacity:1.0" />
	<linearGradient
   id="SVGID_1_"
   gradientUnits="userSpaceOnUse"
   x1="121.8569"
   y1="188.5026"
   x2="156.1903"
   y2="67.8359"
   style="fill-opacity:1.0">
		<stop
   offset="0.3297"
   style="stop-color:#00669F;fill-opacity:1.0"
   id="stop6" />
		<stop
   offset="0.7576"
   style="stop-color:#0D4F7D;fill-opacity:1.0"
   id="stop8" />
		<stop
   offset="1"
   style="stop-color:#12456F;fill-opacity:1.0"
   id="stop10" />
	</linearGradient>
	<path
   fill="url(#SVGID_1_)"
   d="M242.121,150.287c-2.425-15.817-8.499-30.422-17.304-42.97   c-11.527-16.429-27.758-29.298-46.751-36.66c-11.446-4.437-23.879-6.898-36.893-6.898c-14.865,0-28.981,3.195-41.721,8.906   c10.057-4.244,21.111-6.592,32.713-6.592c43.034,0,78.509,32.296,83.562,73.971c-0.166-1.662,0.544,5.072,0.544,10.238   c0,32.199-14.921,60.903-38.206,79.622c-15.302,12.303-34.219,20.277-54.913,22.086c-2.973,0.261-5.972,0.42-9.01,0.42   c-13.014,0-25.447-2.461-36.896-6.898c-36.612-14.197-63.018-48.866-65.104-89.974c2.755,63.914,55.425,114.893,120.021,114.893   c20.896,0,40.544-5.343,57.658-14.722c1.467-0.805,2.914-1.636,4.342-2.497c29.463-17.917,49.14-50.324,49.14-87.324   C243.304,160.585,242.9,155.372,242.121,150.287z"
   id="path13"
   style="fill-opacity:1.0" />
	<radialGradient
   id="SVGID_2_"
   cx="159.6667"
   cy="247"
   r="92.0151"
   gradientUnits="userSpaceOnUse"
   style="fill-opacity:1.0">
		<stop
   offset="0.4313"
   style="stop-color:#00669F;fill-opacity:1.0"
   id="stop15" />
		<stop
   offset="0.6185"
   style="stop-color:#5D9EC2;fill-opacity:1.0"
   id="stop17" />
		<stop
   offset="0.8057"
   style="stop-color:#B4D2E3;fill-opacity:1.0"
   id="stop19" />
		<stop
   offset="0.9366"
   style="stop-color:#EAF2F7;fill-opacity:1.0"
   id="stop21" />
		<stop
   offset="1"
   style="stop-color:#FFFFFF;fill-opacity:1.0"
   id="stop23" />
	</radialGradient>
	<path
   opacity="0.4"
   fill="url(#SVGID_2_)"
   d="M178.066,229.904c-15.302,12.303-34.219,20.277-54.913,22.086   c-2.973,0.261-5.972,0.42-9.01,0.42c-13.014,0-25.447-2.461-36.896-6.898c-36.612-14.197-63.018-48.866-65.104-89.974   c2.755,63.914,55.425,114.893,120.021,114.893c20.896,0,40.544-5.343,57.658-14.722c1.467-0.805,2.914-1.636,4.342-2.497   c3.586-2.181,7.025-4.583,10.305-7.175l-20.916-20.916C181.776,226.771,179.961,228.382,178.066,229.904z"
   id="path26"
   style="fill-opacity:1.0" />
	<radialGradient
   id="SVGID_3_"
   cx="215.7193"
   cy="140.0092"
   r="0.044"
   gradientUnits="userSpaceOnUse"
   style="fill-opacity:1.0">
		<stop
   offset="0.5055"
   style="stop-color:#000000;fill-opacity:1.0"
   id="stop28" />
		<stop
   offset="0.6683"
   style="stop-color:#5D5D5D;fill-opacity:1.0"
   id="stop30" />
		<stop
   offset="0.831"
   style="stop-color:#B4B4B4;fill-opacity:1.0"
   id="stop32" />
		<stop
   offset="0.9449"
   style="stop-color:#EAEAEA;fill-opacity:1.0"
   id="stop34" />
		<stop
   offset="1"
   style="stop-color:#FFFFFF;fill-opacity:1.0"
   id="stop36" />
	</radialGradient>
	<path
   opacity="0.4"
   fill="url(#SVGID_3_)"
   d="M215.709,139.835c0.003,0.036,0.01,0.098,0.016,0.186   c0.003,0.008,0.003,0.014,0.003,0.023C215.719,139.943,215.712,139.878,215.709,139.835z"
   id="path39"
   style="fill-opacity:1.0" />
	<path
   fill="none"
   stroke="#F497A2"
   stroke-width="0.1"
   d="M12.143,155.538c-0.075-1.744-0.13-3.495-0.13-5.256   C12.012,152.044,12.054,153.798,12.143,155.538z"
   id="path41"
   style="fill-opacity:1.0" />
	<path
   fill="none"
   stroke="#F497A2"
   stroke-width="0.1"
   d="M12.012,150.282c0-1.763,0.055-3.513,0.13-5.257   C12.054,146.766,12.012,148.52,12.012,150.282z"
   id="path43"
   style="fill-opacity:1.0" />
	<linearGradient
   id="SVGID_4_"
   gradientUnits="userSpaceOnUse"
   x1="12.0121"
   y1="141.278"
   x2="215.3862"
   y2="141.278"
   style="fill-opacity:1.0">
		<stop
   offset="0.3297"
   style="stop-color:#00669F;fill-opacity:1.0"
   id="stop45" />
		<stop
   offset="0.3755"
   style="stop-color:#00639A;fill-opacity:1.0"
   id="stop47" />
		<stop
   offset="0.7833"
   style="stop-color:#004976;fill-opacity:1.0"
   id="stop49" />
		<stop
   offset="1"
   style="stop-color:#003F68;fill-opacity:1.0"
   id="stop51" />
	</linearGradient>
	<path
   fill="url(#SVGID_4_)"
   d="M215.386,163.759c-6.526,40.004-41.368,70.725-83.22,70.725c-11.609,0-22.67-2.35-32.733-6.598   l-0.31-0.134c-30.888-13.972-53.583-42.855-58.894-77.47c-0.779-5.09-1.187-10.3-1.187-15.607c0-15.354,3.41-29.907,9.48-42.969   c6.66-14.337,16.544-26.864,28.726-36.658c17.503-14.069,39.722-22.506,63.927-22.506c17.61,0,34.18,4.458,48.641,12.307   c-17.118-9.381-36.759-14.721-57.655-14.721c-64.596,0-117.266,50.979-120.021,114.896c-0.075,1.744-0.13,3.495-0.13,5.257   c0,1.761,0.055,3.512,0.13,5.256c2.086,41.108,28.492,75.777,65.104,89.974c11.449,4.437,23.882,6.914,36.896,6.914   c3.038,0,6.037-0.16,9.01-0.421c20.694-1.809,39.611-9.799,54.913-22.102C198.047,213.842,212.032,190.39,215.386,163.759   L215.386,163.759z"
   id="path54"
   style="fill-opacity:1.0" />
	<radialGradient
   id="SVGID_5_"
   cx="33.0925"
   cy="166.1219"
   r="131.3015"
   gradientUnits="userSpaceOnUse"
   style="fill-opacity:1.0">
		<stop
   offset="0.3297"
   style="stop-color:#00669F;fill-opacity:1.0"
   id="stop56" />
		<stop
   offset="0.4697"
   style="stop-color:#3F8CB7;fill-opacity:1.0"
   id="stop58" />
		<stop
   offset="0.663"
   style="stop-color:#90BDD5;fill-opacity:1.0"
   id="stop60" />
		<stop
   offset="0.822"
   style="stop-color:#CCE0EC;fill-opacity:1.0"
   id="stop62" />
		<stop
   offset="0.9384"
   style="stop-color:#F1F7FA;fill-opacity:1.0"
   id="stop64" />
		<stop
   offset="1"
   style="stop-color:#FFFFFF;fill-opacity:1.0"
   id="stop66" />
	</radialGradient>
	<path
   opacity="0.4"
   fill="url(#SVGID_5_)"
   d="M40.23,150.282c-0.779-5.09-1.187-10.3-1.187-15.607   c0-15.354,3.41-29.907,9.48-42.969c6.66-14.337,16.544-26.864,28.726-36.658c17.503-14.069,39.722-22.506,63.927-22.506   c17.61,0,34.18,4.458,48.641,12.307c-17.118-9.381-36.759-14.721-57.655-14.721c-64.596,0-117.266,50.979-120.021,114.896   c-0.075,1.744-0.13,3.495-0.13,5.257c0,0.461,0.026,0.914,0.033,1.374h28.42C40.387,151.196,40.302,150.743,40.23,150.282z"
   id="path69"
   style="fill-opacity:1.0" />
	<linearGradient
   id="SVGID_6_"
   gradientUnits="userSpaceOnUse"
   x1="62.7629"
   y1="169.1762"
   x2="224.5371"
   y2="125.8289"
   style="fill-opacity:1.0">
		<stop
   offset="0"
   style="stop-color:#145E91;fill-opacity:1.0"
   id="stop71" />
		<stop
   offset="0.1401"
   style="stop-color:#24689D;fill-opacity:1.0"
   id="stop73" />
		<stop
   offset="0.3307"
   style="stop-color:#3270A7;fill-opacity:1.0"
   id="stop75" />
		<stop
   offset="0.5689"
   style="stop-color:#3A76AD;fill-opacity:1.0"
   id="stop77" />
		<stop
   offset="1"
   style="stop-color:#3C77AF;fill-opacity:1.0"
   id="stop79" />
	</linearGradient>
	<path
   fill="url(#SVGID_6_)"
   d="M194.171,47.351c-1.431-0.864-2.882-1.697-4.352-2.501c-14.461-7.849-31.031-12.307-48.641-12.307   c-24.205,0-46.425,8.437-63.927,22.506c-12.182,9.794-22.066,22.321-28.726,36.658c-6.07,13.063-9.48,27.615-9.48,42.969   c0,5.307,0.408,10.518,1.187,15.607l0,0c4.254,27.73,19.67,51.782,41.512,67.443c-20.512-15.361-33.783-39.853-33.783-67.445   c0-27.589,13.268-52.077,33.77-67.435c0,0,0,0,0.31-0.219c16.704-11.855,37.091-18.868,59.135-18.868   c13.014,0,25.447,2.461,36.893,6.898c18.992,7.362,35.224,20.231,46.751,36.66c8.805,12.549,14.878,27.153,17.304,42.97   c0.779,5.085,1.183,10.298,1.183,15.602c0,37-19.677,69.407-49.14,87.324c34.849-21.036,58.154-59.259,58.154-102.93   C252.318,106.61,229.016,68.388,194.171,47.351z"
   id="path82"
   style="fill-opacity:1.0" />
</g>

</svg>